<?xml version="1.0" encoding="UTF-8"?>
<svg width="96px" height="18px" viewBox="0 0 96 18" version="1.1" xmlns="http://www.w3.org/2000/svg" xmlns:xlink="http://www.w3.org/1999/xlink">
    <title>stars-5</title>
    <g id="页面-1" stroke="none" stroke-width="1" fill="none" fill-rule="evenodd">
        <g id="designevo-website-001备份-2" transform="translate(-401.000000, -8995.000000)" fill-rule="nonzero">
            <g id="编组-7" transform="translate(401.000000, 8993.000000)">
                <g id="stars-5" transform="translate(0.000000, 2.000000)">
                    <rect id="Rectangle-path" fill="#00B67A" x="0" y="0" width="18" height="18"></rect>
                    <rect id="Rectangle-path" fill="#00B67A" x="19.5" y="0" width="18" height="18"></rect>
                    <rect id="Rectangle-path" fill="#00B67A" x="39" y="0" width="18" height="18"></rect>
                    <rect id="Rectangle-path" fill="#00B67A" x="58.5" y="0" width="18" height="18"></rect>
                    <rect id="Rectangle-path" fill="#00B67A" x="78" y="0" width="18" height="18"></rect>
                    <path d="M9,12.13125 L11.7375,11.4375 L12.88125,14.9625 L9,12.13125 Z M15.3,7.575 L10.48125,7.575 L9,3.0375 L7.51875,7.575 L2.7,7.575 L6.6,10.3875 L5.11875,14.925 L9.01875,12.1125 L11.41875,10.3875 L15.3,7.575 L15.3,7.575 L15.3,7.575 L15.3,7.575 Z" id="Shape" fill="#FFFFFF"></path>
                    <path d="M28.5,12.13125 L31.2375,11.4375 L32.38125,14.9625 L28.5,12.13125 Z M34.8,7.575 L29.98125,7.575 L28.5,3.0375 L27.01875,7.575 L22.2,7.575 L26.1,10.3875 L24.61875,14.925 L28.51875,12.1125 L30.91875,10.3875 L34.8,7.575 L34.8,7.575 L34.8,7.575 L34.8,7.575 Z" id="Shape" fill="#FFFFFF"></path>
                    <path d="M48,12.13125 L50.7375,11.4375 L51.88125,14.9625 L48,12.13125 Z M54.3,7.575 L49.48125,7.575 L48,3.0375 L46.51875,7.575 L41.7,7.575 L45.6,10.3875 L44.11875,14.925 L48.01875,12.1125 L50.41875,10.3875 L54.3,7.575 L54.3,7.575 L54.3,7.575 L54.3,7.575 Z" id="Shape" fill="#FFFFFF"></path>
                    <path d="M67.5,12.13125 L70.2375,11.4375 L71.38125,14.9625 L67.5,12.13125 Z M73.8,7.575 L68.98125,7.575 L67.5,3.0375 L66.01875,7.575 L61.2,7.575 L65.1,10.3875 L63.61875,14.925 L67.51875,12.1125 L69.91875,10.3875 L73.8,7.575 L73.8,7.575 L73.8,7.575 L73.8,7.575 Z" id="Shape" fill="#FFFFFF"></path>
                    <path d="M87,12.13125 L89.7375,11.4375 L90.88125,14.9625 L87,12.13125 Z M93.3,7.575 L88.48125,7.575 L87,3.0375 L85.51875,7.575 L80.7,7.575 L84.6,10.3875 L83.11875,14.925 L87.01875,12.1125 L89.41875,10.3875 L93.3,7.575 L93.3,7.575 L93.3,7.575 L93.3,7.575 Z" id="Shape" fill="#FFFFFF"></path>
                </g>
            </g>
        </g>
    </g>
</svg>